<?xml version="1.0" encoding="utf-8"?>
<!-- Generator: Adobe Illustrator 21.1.0, SVG Export Plug-In . SVG Version: 6.00 Build 0)  -->
<svg version="1.1" id="Capa_1" xmlns="http://www.w3.org/2000/svg" xmlns:xlink="http://www.w3.org/1999/xlink" x="0px" y="0px"
	 viewBox="0 0 300 300" style="enable-background:new 0 0 300 300;" xml:space="preserve">
<style type="text/css">
	.st0{fill:#FFFFFF;}
</style>
<path class="st0" d="M288.5,92.3h-80.8V11.5c0-6.4-5.1-11.5-11.5-11.5h-92.3c-6.4,0-11.5,5.1-11.5,11.5v80.8H11.5
	C5.1,92.3,0,97.4,0,103.8v92.3c0,6.4,5.1,11.5,11.5,11.5h80.8v80.8c0,6.4,5.1,11.5,11.5,11.5h92.3c6.4,0,11.5-5.1,11.5-11.5v-80.8
	h80.8c6.4,0,11.5-5.1,11.5-11.5v-92.3C299.4,97.4,294.2,92.3,288.5,92.3z"/>
</svg>
