<?xml version="1.0" encoding="utf-8"?>
<!-- Generator: Adobe Illustrator 21.1.0, SVG Export Plug-In . SVG Version: 6.00 Build 0)  -->
<svg version="1.1" id="Capa_1" xmlns="http://www.w3.org/2000/svg" xmlns:xlink="http://www.w3.org/1999/xlink" x="0px" y="0px"
	 viewBox="0 0 23.4 25" style="enable-background:new 0 0 23.4 25;" xml:space="preserve">
<style type="text/css">
	.st0{fill:#BD1E2C;}
</style>
<g>
	<rect x="7.8" y="9.4" class="st0" width="3.1" height="3.1"/>
	<rect x="12.5" y="9.4" class="st0" width="3.1" height="3.1"/>
	<rect x="17.2" y="9.4" class="st0" width="3.1" height="3.1"/>
	<rect x="3.1" y="14.1" class="st0" width="3.1" height="3.1"/>
	<rect x="7.8" y="14.1" class="st0" width="3.1" height="3.1"/>
	<rect x="12.5" y="14.1" class="st0" width="3.1" height="3.1"/>
	<rect x="17.2" y="14.1" class="st0" width="3.1" height="3.1"/>
	<rect x="3.1" y="18.8" class="st0" width="3.1" height="3.1"/>
	<rect x="7.8" y="18.8" class="st0" width="3.1" height="3.1"/>
	<rect x="12.5" y="18.8" class="st0" width="3.1" height="3.1"/>
	<path class="st0" d="M20.3,3.1V0.8C20.3,0.4,20,0,19.5,0h-3.1c-0.4,0-0.8,0.4-0.8,0.8v2.3H7.8V0.8C7.8,0.4,7.5,0,7,0H3.9
		C3.5,0,3.1,0.4,3.1,0.8v2.3H0V25h23.4V3.1H20.3z M17.2,1.6h1.6v3.1h-1.6V1.6z M4.7,1.6h1.6v3.1H4.7V1.6z M21.9,23.4H1.6V7.8h20.3
		V23.4z"/>
</g>
</svg>
