<?xml version="1.0" encoding="utf-8"?>
<!-- Generator: Adobe Illustrator 21.1.0, SVG Export Plug-In . SVG Version: 6.00 Build 0)  -->
<svg version="1.1" id="Layer_1" xmlns="http://www.w3.org/2000/svg" xmlns:xlink="http://www.w3.org/1999/xlink" x="0px" y="0px"
	 viewBox="0 0 30 30" style="enable-background:new 0 0 30 30;" xml:space="preserve">
<style type="text/css">
	.st0{fill:#BD1E2C;}
</style>
<g>
	<g>
		<path class="st0" d="M15,0C6.7,0,0,6.7,0,15s6.7,15,15,15s15-6.7,15-15S23.3,0,15,0z M22.1,10.8l-1.4,1.4l-2.9-2.9l-1.1,1.1
			l2.9,2.9l-7.1,7.1l-2.9-2.9l-1.1,1.1l2.9,2.9l-0.7,0.7l0,0c-0.1,0.1-0.2,0.2-0.4,0.3l-2.7,0.6c0,0-0.1,0-0.1,0
			c-0.1,0-0.3-0.1-0.4-0.2c-0.1-0.1-0.2-0.3-0.2-0.5l0.6-2.7c0-0.2,0.1-0.3,0.3-0.4l0,0L19.2,7.9c0.2-0.2,0.4-0.2,0.6,0l2.3,2.3
			C22.3,10.4,22.3,10.6,22.1,10.8z"/>
	</g>
</g>
</svg>
