<?xml version="1.0" encoding="utf-8"?>
<!-- Generator: Adobe Illustrator 21.1.0, SVG Export Plug-In . SVG Version: 6.00 Build 0)  -->
<svg version="1.1" id="Layer_3" xmlns="http://www.w3.org/2000/svg" xmlns:xlink="http://www.w3.org/1999/xlink" x="0px" y="0px"
	 viewBox="0 0 314.8 500" style="enable-background:new 0 0 314.8 500;" xml:space="preserve">
<style type="text/css">
	.st0{fill:#FFFFFF;}
</style>
<g>
	<path class="st0" d="M203.7,305.6c0,15.3,12.5,27.8,27.8,27.8c4.3,0,8.3-1,11.9-2.8l-36.9-36.9
		C204.7,297.3,203.7,301.3,203.7,305.6z"/>
	<path class="st0" d="M55.6,305.6c0,15.3,12.5,27.8,27.8,27.8c4.3,0,8.3-1,11.9-2.8l-36.9-36.9C56.6,297.3,55.6,301.3,55.6,305.6z"
		/>
	<path class="st0" d="M231.5,388.9c-4.3,0-8.3,1-11.9,2.8l36.9,36.9c1.7-3.6,2.8-7.6,2.8-11.9C259.3,401.4,246.8,388.9,231.5,388.9z
		"/>
	<path class="st0" d="M231.5,277.8c-4.3,0-8.3,1-11.9,2.8l36.9,36.9c1.7-3.6,2.8-7.6,2.8-11.9C259.3,290.2,246.8,277.8,231.5,277.8z
		"/>
	<path class="st0" d="M203.7,416.7c0,15.3,12.5,27.8,27.8,27.8c4.3,0,8.3-1,11.9-2.8l-36.9-36.9
		C204.7,408.4,203.7,412.4,203.7,416.7z"/>
	<path class="st0" d="M83.3,55.6c-4.3,0-8.3,1-11.9,2.8l36.9,36.9c1.7-3.6,2.8-7.6,2.8-11.9C111.1,68,98.6,55.6,83.3,55.6z"/>
	<path class="st0" d="M83.3,166.7c-4.3,0-8.3,1-11.9,2.8l36.9,36.9c1.7-3.6,2.8-7.6,2.8-11.9C111.1,179.1,98.6,166.7,83.3,166.7z"/>
	<path class="st0" d="M55.6,83.3c0,15.3,12.5,27.8,27.8,27.8c4.3,0,8.3-1,11.9-2.8L58.3,71.4C56.6,75.1,55.6,79.1,55.6,83.3z"/>
	<path class="st0" d="M83.3,388.9c-4.3,0-8.3,1-11.9,2.8l36.9,36.9c1.7-3.6,2.8-7.6,2.8-11.9C111.1,401.4,98.6,388.9,83.3,388.9z"/>
	<path class="st0" d="M203.7,83.3c0,15.3,12.5,27.8,27.8,27.8c4.3,0,8.3-1,11.9-2.8l-36.9-36.9C204.7,75.1,203.7,79.1,203.7,83.3z"
		/>
	<path class="st0" d="M55.6,416.7c0,15.3,12.5,27.8,27.8,27.8c4.3,0,8.3-1,11.9-2.8l-36.9-36.9C56.6,408.4,55.6,412.4,55.6,416.7z"
		/>
	<path class="st0" d="M231.5,55.6c-4.3,0-8.3,1-11.9,2.8l36.9,36.9c1.7-3.6,2.8-7.6,2.8-11.9C259.3,68,246.8,55.6,231.5,55.6z"/>
	<path class="st0" d="M275.3,0H39.6C17.7,0,0,17.7,0,39.6v420.9C0,482.3,17.7,500,39.6,500h235.7c21.8,0,39.6-17.7,39.6-39.6V39.6
		C314.8,17.7,297.1,0,275.3,0z M83.3,463C57.8,463,37,442.2,37,416.7c0-25.5,20.8-46.3,46.3-46.3c25.5,0,46.3,20.8,46.3,46.3
		C129.6,442.2,108.9,463,83.3,463z M83.3,351.9c-25.5,0-46.3-20.8-46.3-46.3c0-25.5,20.8-46.3,46.3-46.3c25.5,0,46.3,20.8,46.3,46.3
		C129.6,331.1,108.9,351.9,83.3,351.9z M83.3,240.7C57.8,240.7,37,220,37,194.4c0-25.5,20.8-46.3,46.3-46.3
		c25.5,0,46.3,20.8,46.3,46.3C129.6,220,108.9,240.7,83.3,240.7z M83.3,129.6c-25.5,0-46.3-20.8-46.3-46.3C37,57.8,57.8,37,83.3,37
		c25.5,0,46.3,20.8,46.3,46.3C129.6,108.9,108.9,129.6,83.3,129.6z M231.5,463c-25.5,0-46.3-20.8-46.3-46.3
		c0-25.5,20.8-46.3,46.3-46.3c25.5,0,46.3,20.8,46.3,46.3C277.8,442.2,257,463,231.5,463z M231.5,351.9c-25.5,0-46.3-20.8-46.3-46.3
		c0-25.5,20.8-46.3,46.3-46.3c25.5,0,46.3,20.8,46.3,46.3C277.8,331.1,257,351.9,231.5,351.9z M231.5,240.7
		c-25.5,0-46.3-20.8-46.3-46.3c0-25.5,20.8-46.3,46.3-46.3c25.5,0,46.3,20.8,46.3,46.3C277.8,220,257,240.7,231.5,240.7z
		 M231.5,129.6c-25.5,0-46.3-20.8-46.3-46.3c0-25.5,20.8-46.3,46.3-46.3c25.5,0,46.3,20.8,46.3,46.3
		C277.8,108.9,257,129.6,231.5,129.6z"/>
	<path class="st0" d="M203.7,194.4c0,15.3,12.5,27.8,27.8,27.8c4.3,0,8.3-1,11.9-2.8l-36.9-36.9
		C204.7,186.2,203.7,190.2,203.7,194.4z"/>
	<path class="st0" d="M231.5,166.7c-4.3,0-8.3,1-11.9,2.8l36.9,36.9c1.7-3.6,2.8-7.6,2.8-11.9C259.3,179.1,246.8,166.7,231.5,166.7z
		"/>
	<path class="st0" d="M83.3,277.8c-4.3,0-8.3,1-11.9,2.8l36.9,36.9c1.7-3.6,2.8-7.6,2.8-11.9C111.1,290.2,98.6,277.8,83.3,277.8z"/>
	<path class="st0" d="M55.6,194.4c0,15.3,12.5,27.8,27.8,27.8c4.3,0,8.3-1,11.9-2.8l-36.9-36.9C56.6,186.2,55.6,190.2,55.6,194.4z"
		/>
</g>
</svg>
