<svg width="30" height="23" viewBox="0 0 30 23" fill="none" xmlns="http://www.w3.org/2000/svg">
<g clip-path="url(#clip0)">
<path d="M30 18.7C30 19.4 29.8 20 29.5 20.5L20 10L29.4 1.8C29.8 2.3 30 3 30 3.8V18.7ZM15 11.9L28 0.5C27.5 0.2 26.9 0 26.3 0H3.7C3.1 0 2.5 0.2 2 0.5L15 11.9ZM18.6 11.2L15.6 13.8C15.4 14 15.2 14 15 14C14.8 14 14.6 13.9 14.4 13.8L11.4 11.2L1.8 21.9C2.4 22.3 3 22.5 3.8 22.5H26.3C27 22.5 27.7 22.3 28.3 21.9L18.6 11.2ZM0.6 1.8C0.2 2.3 0 3 0 3.8V18.8C0 19.5 0.2 20.1 0.5 20.6L10 10L0.6 1.8Z" fill="white"/>
</g>
<defs>
<clipPath id="clip0">
<rect width="30" height="22.5" fill="white"/>
</clipPath>
</defs>
</svg>
