<?xml version="1.0" encoding="utf-8"?>
<!-- Generator: Adobe Illustrator 21.1.0, SVG Export Plug-In . SVG Version: 6.00 Build 0)  -->
<svg version="1.1" id="Layer_1" xmlns="http://www.w3.org/2000/svg" xmlns:xlink="http://www.w3.org/1999/xlink" x="0px" y="0px"
	 viewBox="0 0 356.3 500" style="enable-background:new 0 0 356.3 500;" xml:space="preserve">
<style type="text/css">
	.st0{fill:#FFFFFF;}
</style>
<path class="st0" d="M178.1,0C178.1,0,0,222.9,0,321.9C0,420.8,80.2,500,178.1,500c97.9,0,178.1-79.2,178.1-178.1
	C356.3,224,178.1,0,178.1,0z M178.1,453.1c-71.9,0-131.3-58.3-131.3-131.2c0-8.3,7.3-15.6,15.6-15.6c8.3,0,15.6,7.3,15.6,15.6
	c0,55.2,44.8,100,100,100c8.3,0,15.6,7.3,15.6,15.6C193.8,445.8,186.5,453.1,178.1,453.1z"/>
</svg>
