<?xml version="1.0" encoding="utf-8"?>
<!-- Generator: Adobe Illustrator 21.1.0, SVG Export Plug-In . SVG Version: 6.00 Build 0)  -->
<svg version="1.1" id="Capa_1" xmlns="http://www.w3.org/2000/svg" xmlns:xlink="http://www.w3.org/1999/xlink" x="0px" y="0px"
	 viewBox="0 0 392.8 500" style="enable-background:new 0 0 392.8 500;" xml:space="preserve">
<style type="text/css">
	.st0{fill:#FFFFFF;}
</style>
<path class="st0" d="M270.7,0H0.5v500h391.7V121.6L270.7,0z M92.2,116.7h83.3c4.6,0,8.3,3.7,8.3,8.3s-3.7,8.3-8.3,8.3H92.2
	c-4.6,0-8.3-3.7-8.3-8.3S87.6,116.7,92.2,116.7z M300.5,400H92.2c-4.6,0-8.3-3.7-8.3-8.3c0-4.6,3.7-8.3,8.3-8.3h208.3
	c4.6,0,8.3,3.7,8.3,8.3C308.9,396.3,305.1,400,300.5,400z M300.5,333.3H92.2c-4.6,0-8.3-3.7-8.3-8.3s3.7-8.3,8.3-8.3h208.3
	c4.6,0,8.3,3.7,8.3,8.3S305.1,333.3,300.5,333.3z M300.5,266.7H92.2c-4.6,0-8.3-3.7-8.3-8.3c0-4.6,3.7-8.3,8.3-8.3h208.3
	c4.6,0,8.3,3.7,8.3,8.3C308.9,262.9,305.1,266.7,300.5,266.7z M300.5,200H92.2c-4.6,0-8.3-3.7-8.3-8.3c0-4.6,3.7-8.3,8.3-8.3h208.3
	c4.6,0,8.3,3.7,8.3,8.3C308.9,196.3,305.1,200,300.5,200z M258.9,133.3V16.7l116.7,116.7H258.9z"/>
</svg>
