<?xml version="1.0" encoding="utf-8"?>
<!-- Generator: Adobe Illustrator 21.1.0, SVG Export Plug-In . SVG Version: 6.00 Build 0)  -->
<svg version="1.1" id="Layer_1" xmlns="http://www.w3.org/2000/svg" xmlns:xlink="http://www.w3.org/1999/xlink" x="0px" y="0px"
	 viewBox="0 0 25 25" style="enable-background:new 0 0 25 25;" xml:space="preserve">
<style type="text/css">
	.st0{fill:#BD1E2C;}
</style>
<path class="st0" d="M12.5,0C5.6,0,0,5.6,0,12.5S5.6,25,12.5,25C19.4,25,25,19.4,25,12.5S19.4,0,12.5,0z M17.9,14.9h-5.3
	c0,0,0,0-0.1,0c0,0,0,0-0.1,0c-0.5,0-0.9-0.4-0.9-0.9V5.2c0-0.5,0.4-0.9,0.9-0.9s0.9,0.4,0.9,0.9v8h4.5c0.5,0,0.9,0.4,0.9,0.9
	S18.4,14.9,17.9,14.9z"/>
</svg>
