<?xml version="1.0" encoding="utf-8"?>
<!-- Generator: Adobe Illustrator 21.1.0, SVG Export Plug-In . SVG Version: 6.00 Build 0)  -->
<svg version="1.1" id="Layer_1" xmlns="http://www.w3.org/2000/svg" xmlns:xlink="http://www.w3.org/1999/xlink" x="0px" y="0px"
	 viewBox="0 0 500 428.4" style="enable-background:new 0 0 500 428.4;" xml:space="preserve">
<style type="text/css">
	.st0{fill:#FFFFFF;}
</style>
<path class="st0" d="M495,206.5L274.3,389.1c-4.2,3.4-9.8,4.1-14.8,1.8c-4.9-2.3-8-7.2-8-12.5v-95.6
	c-89.2,0.3-150.8,6.7-225.6,138.5c-2.5,4.4-7.1,7-12,7c-1.1,0-2.4-0.1-3.5-0.4c-6.1-1.6-10.3-7.2-10.3-13.4c0-3.5,0-7.2,0-11.1
	c-0.3-47.9-0.6-120.2,32.4-181.3c38.3-70.8,112-108.6,219.2-112.5V13.8c0-5.3,3.1-10.2,7.9-12.5c4.8-2.3,10.6-1.5,14.7,1.8
	l220.8,182c3.2,2.7,5,6.7,5,10.8C500,200,498.2,203.9,495,206.5z"/>
</svg>
