<?xml version="1.0" encoding="utf-8"?>
<!-- Generator: Adobe Illustrator 21.1.0, SVG Export Plug-In . SVG Version: 6.00 Build 0)  -->
<svg version="1.1" id="Layer_1" xmlns="http://www.w3.org/2000/svg" xmlns:xlink="http://www.w3.org/1999/xlink" x="0px" y="0px"
	 viewBox="0 0 300 72.9" style="enable-background:new 0 0 300 72.9;" xml:space="preserve">
<style type="text/css">
	.st0{fill:#FFFFFF;}
</style>
<g>
	<rect x="48.1" class="st0" width="7.3" height="16.2"/>
	<path class="st0" d="M57.2,6.7v9.5v1.9h-1.9h-7.3h-1.9v-1.9V6.7h-26v9.5v1.9h-1.9h-7.3H9v-1.9V6.7H0v66.2h51.9
		c7.9,0,14.3-6.4,14.3-14.3V6.7H57.2z M44.1,63.8H22.2V23.1h21.6v4.4H27.3v13.1h14.4V45H27.3v14.4h16.8V63.8z"/>
	<g>
		<path class="st0" d="M85.2,47.8v15.9h-5.1V23.1h13c3.8,0,6.8,1.1,8.9,3.4c2.2,2.3,3.2,5.3,3.2,9c0,3.9-1,6.9-3.1,9
			c-2.1,2.1-5,3.2-8.7,3.3H85.2z M85.2,43.5h7.9c2.3,0,4-0.7,5.2-2s1.8-3.3,1.8-5.8c0-2.4-0.6-4.4-1.9-5.9c-1.2-1.5-3-2.2-5.1-2.2
			h-7.9V43.5z"/>
		<path class="st0" d="M109.7,47.3c0-4.4,1.1-7.9,3.2-10.4c2.1-2.6,4.9-3.8,8.5-3.8c3.5,0,6.3,1.2,8.5,3.7c2.1,2.5,3.2,5.9,3.3,10.2
			v3.2c0,4.4-1.1,7.8-3.2,10.4c-2.1,2.6-5,3.8-8.5,3.8c-3.5,0-6.3-1.2-8.4-3.7c-2.1-2.5-3.2-5.8-3.3-10.1V47.3z M114.7,50.1
			c0,3.1,0.6,5.6,1.8,7.3c1.2,1.8,2.9,2.7,4.9,2.7c4.4,0,6.6-3.1,6.7-9.4v-3.4c0-3.1-0.6-5.5-1.8-7.3c-1.2-1.8-2.9-2.7-4.9-2.7
			c-2,0-3.7,0.9-4.9,2.7c-1.2,1.8-1.8,4.2-1.8,7.3V50.1z"/>
		<path class="st0" d="M138.4,47.3c0-4.7,0.9-8.2,2.6-10.6c1.7-2.4,4.2-3.7,7.5-3.7c2.9,0,5.1,1.2,6.8,3.5V20.8h4.9v42.9h-4.5
			l-0.3-3.2c-1.6,2.5-3.9,3.8-7,3.8c-3.1,0-5.6-1.2-7.4-3.6c-1.8-2.4-2.7-5.9-2.7-10.3V47.3z M143.4,50.1c0,3.4,0.5,5.9,1.5,7.5
			c1,1.6,2.6,2.4,4.9,2.4c2.5,0,4.3-1.2,5.5-3.7V41c-1.3-2.4-3.1-3.6-5.5-3.6c-2.3,0-3.9,0.8-4.9,2.4c-1,1.6-1.5,4-1.5,7.3V50.1z"/>
		<path class="st0" d="M182.6,56c0-1.1-0.4-2-1.2-2.7c-0.8-0.8-2.3-1.7-4.6-2.7c-2.7-1.1-4.5-2-5.6-2.8c-1.1-0.8-1.9-1.7-2.4-2.7
			c-0.5-1-0.8-2.2-0.8-3.6c0-2.5,0.9-4.5,2.7-6.1c1.8-1.6,4.1-2.4,6.9-2.4c2.9,0,5.3,0.9,7.1,2.6c1.8,1.7,2.7,3.9,2.7,6.6h-4.9
			c0-1.4-0.5-2.5-1.4-3.5c-0.9-1-2.1-1.4-3.5-1.4c-1.5,0-2.6,0.4-3.4,1.1c-0.8,0.8-1.2,1.8-1.2,3c0,1,0.3,1.8,0.9,2.4
			c0.6,0.6,2.1,1.4,4.4,2.4c3.7,1.4,6.2,2.8,7.5,4.2c1.3,1.4,2,3.1,2,5.2c0,2.6-0.9,4.7-2.7,6.3c-1.8,1.6-4.2,2.4-7.3,2.4
			c-3.1,0-5.7-0.9-7.7-2.7c-2-1.8-2.9-4.1-2.9-6.9h5c0.1,1.7,0.6,3,1.5,3.9c1,0.9,2.3,1.4,4.1,1.4c1.6,0,2.9-0.4,3.7-1.1
			C182.1,58.3,182.6,57.3,182.6,56z"/>
		<path class="st0" d="M204.8,64.3c-3.8,0-6.6-1.1-8.7-3.4c-2-2.2-3-5.5-3.1-9.9v-3.7c0-4.5,1-8,2.9-10.6c2-2.6,4.7-3.8,8.2-3.8
			c3.5,0,6.2,1.1,7.9,3.4c1.8,2.3,2.6,5.8,2.7,10.5v3.2h-16.9v0.7c0,3.2,0.6,5.6,1.8,7.1c1.2,1.5,3,2.2,5.3,2.2
			c1.5,0,2.7-0.3,3.8-0.8c1.1-0.5,2.1-1.4,3.1-2.6l2.6,3.1C212.4,62.8,209.1,64.3,204.8,64.3z M204.2,37.2c-2,0-3.6,0.7-4.6,2.1
			c-1,1.4-1.5,3.6-1.7,6.6h11.9v-0.7c-0.1-2.9-0.6-4.9-1.6-6.1C207.4,37.8,206,37.2,204.2,37.2z"/>
		<path class="st0" d="M227.2,26.2v7.3h4.6v4h-4.6v18.8c0,1.2,0.2,2.1,0.6,2.7c0.4,0.6,1.1,0.9,2,0.9c0.7,0,1.3-0.1,2-0.3l-0.1,4.2
			c-1.1,0.4-2.3,0.6-3.4,0.6c-2,0-3.4-0.7-4.5-2.1c-1-1.4-1.5-3.4-1.5-5.9V37.5h-4.6v-4h4.6v-7.3H227.2z"/>
		<path class="st0" d="M242.3,33.5l0.1,3.3c1.9-2.6,4.4-3.8,7.3-3.8c5.3,0,8.1,3.6,8.1,10.7v20.1H253V43.9c0-2.4-0.4-4-1.2-5
			c-0.8-1-2-1.5-3.6-1.5c-1.2,0-2.3,0.4-3.3,1.2c-1,0.8-1.8,1.9-2.4,3.2v22h-4.9V33.5H242.3z"/>
		<path class="st0" d="M271.1,25.5c0,0.8-0.2,1.5-0.7,2.1c-0.5,0.6-1.2,0.8-2.1,0.8c-0.9,0-1.6-0.3-2.1-0.8
			c-0.5-0.6-0.7-1.3-0.7-2.1c0-0.8,0.2-1.5,0.7-2.1c0.5-0.6,1.2-0.9,2.1-0.9c0.9,0,1.6,0.3,2.1,0.9S271.1,24.7,271.1,25.5z
			 M270.7,63.8h-4.9V33.5h4.9V63.8z"/>
		<path class="st0" d="M286,49.9l-2.6,3v10.8h-4.9V20.8h4.9v25.7l9.4-13h5.9l-9.6,12.6L300,63.8h-5.8L286,49.9z"/>
	</g>
	<rect x="10.9" class="st0" width="7.3" height="16.2"/>
</g>
</svg>
